<?xml version="1.0" encoding="utf-8"?>
<!-- Generator: Adobe Illustrator 24.0.2, SVG Export Plug-In . SVG Version: 6.00 Build 0)  -->
<svg version="1.1" id="Calque_1" xmlns="http://www.w3.org/2000/svg" xmlns:xlink="http://www.w3.org/1999/xlink" x="0px" y="0px"
	 viewBox="0 0 897.4 2131.2" style="enable-background:new 0 0 897.4 2131.2;" xml:space="preserve">
<style type="text/css">
	.st0{fill-rule:evenodd;clip-rule:evenodd;}
</style>
<g>
	<path class="st0" d="M109.5,126.5C95.8,137.7-28.3,247.6,6,388.2c17.8,72.8,100.3,108.6,209,81c16.4-4.2,15.7,5,10.7,10
		s-3.1,15.1,12.6,11.3s20.3-3.6,12.6,8.2c-12,18.2-3.5,27.7,14.4,20.1c27.5-11.6,33.3-14.4,43.3-2.5s19.5,18.2,30.8,18.2
		s17,3.8,10,9.4c-6.9,5.6-47.7,30.1-63.4,68.4c-15.7,38.3-27.6,88.5-19.5,183.9c8.2,95.4,6.1,148.3-12.1,211.1
		c-18.2,62.8-31.8,162.4-22.4,213.8c4,22,4.4,23.2-8.8,23.2c-13.2,0-30.8,2.5-60.9,33.3c-30.1,30.7-50.8,50.2-52.7,57.7
		s-3.8,30.1,24.5,19.5s102.3-55.2,124.9-10s30.1,43.3,30.8,0.6s12.6-25.7,12.6-1.9c0,23.8-13.8,296.8-12.6,367.1
		c1.2,70.3-2.2,205.3-44.4,278.1c-11.1,19.1-3,24,2.4,24.4c13.9,0.9,11.9,4.2-7.6,12.6c-18.4,8-46.1,27.9-45.5,67.6
		c0.5,27.9,43.6,36.4,78.8,37.8c59.6,2.4,73.1-32.5,108.9-46.9c22.7-9.1,39.2-11.6,50.5-11.5c29.4,0.4,22.6-25.7,22.6-25.7H480
		c0,0,11.5-0.3,9-12.2c-11.1-51.3-16.2-344.2-9.6-514.4c5-131.2,8.9-171.5,14.4-199.6c2.9-15,14.7-20.3,18.2-1.3
		c10.7,57.9,6.9,298.7,9.4,377.8c2.5,79.1,7.8,209.9-7.5,329.5c-2.5,19.2-3.1,19.5,6.9,19.5c10.1,0,25.1-1.2,25.1-1.2
		s0.1,11.9,6.3,18.2c11.7,12,33,5.3,54,11.3c37.4,10.6,59.9,50.9,133.5,53.3c47.6,1.6,58.4-10.7,55.8-43.6
		c-2.2-28.2-25.6-43.7-32.5-49.9c-6.9-6.3-9.4-7.5,2.5-10.1c11.9-2.5,20.9,2.4,2.5-23.2c-35.2-49.2-55.9-102.4-73.2-200.8
		c-25.5-145.1-20-229.8-10.6-382.7c5.1-83.8,6.1-97.5,12.3-134.4c1.3-8,5.6-19.9,20.7-10.7c32.2,19.6,39,24.4,82.8,23.2
		c20.1-0.6,21.4-8.5,7.5-15.3c-6.9-3.4-6.2-6.6,5.7-6.6s37,1.9,54,1.2c17-0.6,57.1-8.2,2.5-29.5s-113.6-32.6-124.9-33.3
		c-11.3-0.6-13.6-4.9-5.2-8.8c4.2-1.9,10.4-3.3-4.9-21.8c-25.8-31.3-47.7-140.7-50.8-212.3c-3.1-71.6-5.7-111.1,8.8-214
		c7.2-51.3,23.4-184.5-112.3-217.8c-33.6-8.2-56.5-13.4-70.3-20.1c-24.5-11.9-20.6-25.7-5.7-24.5c15.2,1.3,20.7-0.6,14.4-20.7
		c-5.6-18,10.1-13.7,15.7-9.4c16.3,12.6,40.8,14.4,27.6-13.2c-10.8-22.7-5-25.7,8.2-24.5c30.2,2.9,32-5.6,5.7-22.6
		c-28.4-18.3-19.5-33.3,9.4-42c21.8-6.6,149.4-41.4,157.5-163.2C751.1,75.6,644.8,15.9,576,2.1c-31.4-6.3-40.2,3.1-19.5,6.3
		c30.6,4.6,70.9,38.9,61.5,107.3c-9.3,67.8-74.7,82.2-86,82.2s-40.8-2.5-33.9-23.9c5.8-18,6.9-32.6-30.1-17
		c-40.8,17.3-38.9,5.7-33.9-9.4c5-15.1,13.8-32.6-15.7-15.1c-18.6,11.1-28.2,23.2-41.4,5c-10.1-13.8-25.7-5-37,13.2
		s-8.8,41.4-69,32.6c-64-9.3-58,7.3-32,23.2c27.6,16.9,15.1,18.8-5,19.5c-35.7,1.1-40.8,9.4-22,20.7c11.9,7.1,6.9,20.7-11.3,24.5
		s-38.5,13.2-17,20.7c28.9,10,21.3,13.8,0.6,17c-20.7,3.1-86.9,7.8-96.7-43.9c-9.4-50.2,28-112,42.7-129.3
		C157.5,103.8,130.9,109,109.5,126.5L109.5,126.5z"/>
</g>
</svg>
